<svg width="60" height="50" viewBox="0 0 60 50" fill="none" xmlns="http://www.w3.org/2000/svg">
<g clip-path="url(#clip0_6_144)">
<path d="M60 0.999966V49C59.6211 49.7529 58.8881 50 58 50C57.9359 50 58.0632 50.005 58 50V50H2.00001C1.93386 50.008 2.07819 50 2.00001 50C0.900446 50 1.15526e-05 49.0954 1.15526e-05 48C1.15526e-05 47.9221 -0.0090095 48.0759 1.15526e-05 48V48C1.15526e-05 32.7945 1.15526e-05 17.2048 1.15526e-05 1.99997C-0.00500014 1.94504 1.15526e-05 2.06488 1.15526e-05 1.99997C1.15526e-05 0.90449 0.900446 -3.38773e-05 2.00001 -3.38773e-05C2.07118 -3.38773e-05 1.93085 -0.00702415 2.00001 -3.38773e-05V-3.38773e-05C20.5333 -3.38773e-05 39.4895 -3.38773e-05 58 -3.38773e-05C58.0752 -0.00902137 57.9108 -3.38773e-05 58 -3.38773e-05C58.8891 -3.38773e-05 59.6732 0.233033 60 0.999966V0.999966V0.999966ZM23 25V31C23.001 31.3655 22.9058 31.6644 23 32V32C23.3558 32.8987 23.9897 33 25 33C25.5112 33 25.6111 33.2726 26 33V33C29.3358 31.0866 32.6993 28.9483 36 27C36.6816 26.6325 37 25.8128 37 25C37 24.1871 36.6696 23.3625 36 23V23C32.6993 20.9818 29.3879 18.9483 26 17C25.6462 16.7803 25.4601 17 25 17C23.6879 17 23 17.6938 23 19C23 19.0499 22.997 18.951 23 19V19C23.1223 20.8614 23 23.1386 23 25V25ZM9.00001 6.99997V3.99997H4.00001V6.99997H9.00001ZM4.00001 46H9.00001V43H4.00001V46ZM19 3.99997H13V6.99997H19V3.99997ZM23 3.99997V6.99997H28V2.99997L23 3.99997ZM38 6.99997V3.99997H32V6.99997H38ZM47 3.99997H41V6.99997H47V3.99997ZM38 46V44H32V46H38ZM19 46V44H13V46H19ZM28 46V44H23V46H28ZM47 43H41V46H47V43ZM56 6.99997V2.99997H51V6.99997H56ZM56 43H51V46H56V43Z" fill="#BDAE82"/>
</g>
<defs>
<clipPath id="clip0_6_144">
<rect width="60" height="50" fill="white"/>
</clipPath>
</defs>
</svg>
