<svg width="66" height="50" viewBox="0 0 66 50" fill="none" xmlns="http://www.w3.org/2000/svg">
<g clip-path="url(#clip0_6_146)">
<path d="M0 49V2.00002C0.361056 1.11209 1.00261 2.48034e-05 2 2.48034e-05C2.05984 2.48034e-05 1.94115 -0.00497485 2 2.48034e-05V2.48034e-05H64C64.0569 -0.00497485 63.9332 2.48034e-05 64 2.48034e-05C65.2368 2.48034e-05 66 0.76011 66 2.00002C66 2.06702 66.006 1.93503 66 2.00002V2.00002C66 11.4734 66 21.5447 66 31C66 36.6406 66 42.3594 66 48C66.008 48.066 66 47.922 66 48C66 49.099 65.0961 50 64 50C63.9701 50 64.0299 50.001 64 50V50H3C2.89827 50.014 2.11969 50 2 50C0.983657 50 0.401949 49.866 0 49V49V49ZM62 4.00002H4V32H5L16 24C16.396 23.6021 17.3946 23 18 23C18.6054 23 18.604 23.6021 19 24L31 32C32.8202 33.3139 34.1798 34.7221 36 36C36.3311 36.256 36.5432 36 37 36C37.8987 36 38.7556 35.821 39 35V35C39.0509 34.83 39 34.203 39 34C39 33.2271 38.6284 33.353 38 33V33C35.4633 31.2115 33.4277 28.8012 31 27H30H31L41 19C41.396 18.6021 41.3946 19 42 19C42.6054 19 43.604 18.6021 44 19L61 32H62V4.00002Z" fill="#BDAE82"/>
<path d="M27 9C30.0263 9 33 11.9362 33 15C33.046 15.2715 33 14.6819 33 15C33 18.0648 30.0253 21 27 21C23.9746 21 22 18.0638 22 15C22 14.6809 21.9489 15.305 22 15V15C22 14.999 22 15.001 22 15C22 11.9878 24.0447 9.08207 27 9V9V9Z" fill="#CCBA8D"/>
</g>
<defs>
<clipPath id="clip0_6_146">
<rect width="66" height="50" fill="white"/>
</clipPath>
</defs>
</svg>
