<svg width="32" height="50" viewBox="0 0 32 50" fill="none" xmlns="http://www.w3.org/2000/svg">
<path d="M4 50V47H15V41C6.83919 40.1856 0.0378368 33.3082 0 25V25H3C3.01394 29.3834 4.68131 33.6424 8 36V36C10.0631 37.5402 13.1841 38 16 38C16.236 38 16.766 38.012 17 38V38C23.963 37.6621 28.9373 32.0092 29 25V25H32C32 25.0329 32 24.9612 32 25C32 29.1372 30.6147 33.1968 28 36V36C25.4042 38.8412 22.0336 40.6252 18 41V41V47H28V50H4Z" fill="#CCBA8D"/>
<path d="M26 12V16H19V19H26V23H19V26H26C25.2973 30.9959 21.0349 35 16 35C10.9651 35 6.6968 30.941 6 26V26H13V23H6V19H13V16H6V12H13V9H6C6.74762 4.05399 11.0012 0 16 0C20.9929 0 25.2524 4.11881 26 9V9H19V12H26Z" fill="#BDAE82"/>
</svg>
