<svg width="62" height="50" viewBox="0 0 62 50" fill="none" xmlns="http://www.w3.org/2000/svg">
<g clip-path="url(#clip0_6_114)">
<path d="M31 50.0001C22.8486 50.0001 15.1504 50.0001 7 50.0001C6.97293 50.0001 6.03208 50.0001 6 50.0001C2.4481 50.0001 3.05672e-06 47.516 3.05672e-06 44.0001C3.05672e-06 43.9683 -0.000999457 44.0318 3.05672e-06 44.0001V44.0001C0.0715157 34.6367 0.0715157 24.3754 3.05672e-06 15.0001C3.05672e-06 14.9891 3.05672e-06 15.013 3.05672e-06 15.0001C3.05672e-06 11.4741 2.43807 9.00006 6 9.00006C22.3741 9.00006 39.6259 9.00006 56 9.00006C56.0822 8.99609 55.9028 9.00006 56 9.00006C59.4035 9.00006 62 11.6309 62 15.0001C62 15.1023 62.005 14.8998 62 15.0001V15.0001V44.0001C62.007 44.1082 62 43.872 62 44.0001C62 47.3692 59.4035 50.0001 56 50.0001C55.8957 50.0001 56.1033 50.005 56 50.0001V50.0001H31ZM31 44.0001C31.0421 44.0001 30.9499 44.0001 31 44.0001C38.994 44.0001 46 37.9133 46 30.0001C46 22.0869 38.994 15.0001 31 15.0001C23.018 15.0001 17.0211 22.1047 17 30.0001V30.0001C17.0491 37.8249 23.1192 43.871 31 44.0001V44.0001V44.0001ZM12 19.0001C11.9609 17.8876 11.1258 17.0189 10 17.0001V17.0001C8.86215 17.0001 8 17.8737 8 19.0001C8 20.1264 8.86215 21.0001 10 21.0001C11.1399 20.9802 11.98 20.1264 12 19.0001V19.0001Z" fill="#CCBA8D"/>
<path d="M43 6.00005H20C20.3608 4.61834 20.6392 3.32959 21 2.00005C21.0788 0.908207 21.8449 5.26048e-05 23 5.26048e-05C23.1354 5.26048e-05 23.8717 -0.023137 24 5.26048e-05V5.26048e-05H40C40.0707 -0.00767728 39.9181 5.26048e-05 40 5.26048e-05C41.0601 5.26048e-05 41.8595 1.02415 42 2.00005V2.00005C42.3436 3.2436 42.6746 3.75651 43 5.00005C43.0364 5.15562 42.9646 5.81067 43 6.00005V6.00005Z" fill="#CCBA8D"/>
<path d="M30 44C22.0074 43.9789 16 37.9956 16 30C16 21.9923 22.9923 15 31 15C39.0077 15 45 21.9923 45 30C45 30.0502 45.001 29.9488 45 30V30C44.8785 37.9424 37.9555 43.9809 30 44V44V44ZM30 40C35.7191 40 41 35.7191 41 30C41 24.2809 35.7191 19 30 19C24.294 19 20.0201 23.299 20 29V29C20 29.0211 20 29.9749 20 30C20 35.699 24.301 40 30 40C30.0382 40 30.9628 40.001 31 40V40H30Z" fill="#CCBA8D"/>
<path d="M12 19C11.9814 20.0949 11.0926 20.962 10 21V21C8.89079 21 8 20.1046 8 19C8 17.8954 8.89079 17 10 17C11.0838 17.037 11.9629 17.9236 12 19V19V19Z" fill="#BDAE82"/>
<path d="M31 21C35.257 21.1397 38.8707 24.7609 39 29V29C39.0019 29.0368 39 28.9553 39 29C39 30.0985 38.0852 30.9359 37 31V31C36.9951 31 37.0058 31 37 31C35.8867 31 35 30.1112 35 29C34.9621 26.8144 33.181 25.0572 31 25V25C30.9835 25 31.0195 25 31 25C29.9061 25 29 24.0917 29 23C29 22.9689 28.999 23.031 29 23V23C29.0525 21.9315 29.9207 21 31 21C31.0622 21 30.9397 20.9951 31 21V21V21Z" fill="#CCBA8D"/>
</g>
<defs>
<clipPath id="clip0_6_114">
<rect width="62" height="50" fill="white"/>
</clipPath>
</defs>
</svg>
