<svg width="32" height="32" viewBox="0 0 32 32" fill="none" xmlns="http://www.w3.org/2000/svg">
<path d="M18 2.99989C20.426 2.99989 20.7607 2.94631 22 2.99989C23.4283 3.06762 24.1509 3.66223 25 3.99989C25.8896 4.33654 27.2591 4.25886 28 4.99989C28.7551 5.74092 28.6492 7.11024 29 7.99989C29.3366 8.84909 29.9333 9.55725 30 10.9999C30.0677 12.2808 30 12.3037 30 14.9999V17.9999C30 20.6961 30.0677 20.719 30 21.9999C29.9768 23.1777 29.3942 23.9647 29 24.9999V24.9999C28.6492 25.8895 28.741 27.2589 28 27.9999C27.2449 28.7551 25.8896 28.6491 25 28.9999C24.1509 29.3365 23.4293 29.9332 22 29.9999C20.7193 30.0676 20.6959 29.9999 18 29.9999H15C12.3041 29.9999 12.2939 30.0676 11 29.9999C9.82237 29.9766 9.03511 29.3942 8.00001 28.9999V28.9999C7.067 28.643 5.65605 28.6661 5.00001 27.9999V27.9999C4.32678 27.3407 4.34369 25.8946 4.00001 24.9999V24.9999C3.62903 24.0334 3.02326 23.1675 3.00001 21.9999V21.9999C2.94643 20.9465 3.00001 20.2403 3.00001 18.9999C3.00001 18.7714 2.99799 18.2274 3.00001 17.9999V17.9999V14.9999C3.00001 12.5736 2.94643 12.2393 3.00001 10.9999C3.06773 9.5714 3.67654 8.84909 4.00001 7.99989C4.35077 7.11024 4.24491 5.74092 5.00001 4.99989C5.652 4.32558 7.10743 4.33249 8.00001 3.99989V3.99989C8.96536 3.62482 9.83248 3.02718 11 2.99989V2.99989C12.2403 2.94631 12.574 2.99989 15 2.99989H18ZM18 4.99989H15C12.668 4.99989 12.213 5.94631 11 5.99989C9.69299 6.05347 9.47207 5.81185 9.00001 5.99989C8.36621 6.24252 7.47106 6.52777 7.00001 6.99989C6.52895 7.47201 6.24261 8.36703 6.00001 8.99989C5.82513 9.47201 6.05358 9.67856 6.00001 10.9999C5.94643 12.213 5.00001 12.6545 5.00001 14.9999V17.9999C5.00001 20.3453 5.94643 20.7867 6.00001 21.9999C6.05358 23.3071 5.81199 23.5278 6.00001 23.9999C6.24261 24.6338 6.52794 25.5288 7.00001 25.9999C7.47207 26.471 8.36722 26.7573 9.00001 26.9999C9.47207 27.1889 9.67883 26.9463 11 26.9999C12.307 27.0676 13.0888 27.9999 16 27.9999H17C19.9244 27.9999 20.6798 27.0676 22 26.9999C23.307 26.9463 23.5279 27.1879 24 26.9999C24.6338 26.7573 25.529 26.472 26 25.9999C26.4711 25.5278 26.7574 24.6327 27 23.9999C27.189 23.5278 26.9464 23.3081 27 21.9999C27.0677 20.6786 28 19.9246 28 16.9999V15.9999C28 13.0752 27.0677 12.3212 27 10.9999C26.9464 9.69272 27.188 9.47201 27 8.99989C26.7716 8.3923 26.4367 7.42247 26 6.99989V6.99989C25.5755 6.56214 24.5792 6.21927 24 5.99989V5.99989C23.2601 5.72086 22.8936 6.01202 22 5.99989V5.99989C20.9609 5.94732 19.2241 4.99989 18 4.99989C17.8019 4.99989 18.1981 4.99888 18 4.99989V4.99989V4.99989ZM17 9.99989C20.822 9.99989 23 13.1764 23 16.9999C23 20.8233 20.823 22.9999 17 22.9999C13.178 22.9999 10 20.8233 10 16.9999C10 13.1764 13.177 9.99989 17 9.99989V9.99989ZM17 11.9999C14.5174 11.9999 12 14.517 12 16.9999C12 19.4828 14.5174 20.9999 17 20.9999C19.4826 20.9999 21 19.4828 21 16.9999C21 14.517 19.4826 11.9999 17 11.9999ZM24 7.99989C24.8936 7.99989 25 8.1062 25 8.99989C25 9.89358 24.8936 10.9999 24 10.9999C23.1064 10.9999 22 9.89358 22 8.99989C22 8.1062 23.1064 7.99989 24 7.99989V7.99989Z" fill="white"/>
</svg>
