<svg width="32" height="32" viewBox="0 0 32 32" fill="none" xmlns="http://www.w3.org/2000/svg">
<path d="M17 3C9.53872 3.02734 3 8.56153 3 16C3 21.6687 6.03022 27.0004 11 29H12C11.8649 27.9339 11.7287 26.1744 12 25L13 18C13 18 13 17.1876 13 16C13 14.1239 13.6313 13 15 13C16.1512 13 17 13.9734 17 15C17 16.1613 16.3932 18.3932 16 20C15.6748 21.3496 16.6587 22 18 22C20.4112 22 22 19.6448 22 16C22 12.7602 19.3328 10 16 10C15.9228 9.99595 16.0904 10 16 10C12.7596 10 10 12.7723 10 16C10 16.002 10 15.998 10 16C10 17.1613 10.4442 18.3247 11 19C11.1087 19.1347 11.0406 19.8643 11 20V21C10.9461 21.243 11.2439 21.1215 11 21C9.29294 20.2032 8 17.9976 8 16C8 11.7477 11.1472 8 17 8C21.6873 8 25 11.5321 25 16C25 20.6573 22.0908 24 18 24C16.6455 24 15.4339 23.8363 15 23L14 26C13.5621 27.3536 12.7072 27.9217 12 29V29C13.1888 29.3766 14.5825 30 16 30C23.4826 30 30 24.4547 30 17C30 9.56153 24.4582 3.02734 17 3V3V3Z" fill="white"/>
</svg>
