<svg width="150" height="150" viewBox="0 0 150 150" fill="none" xmlns="http://www.w3.org/2000/svg">
<path d="M66 12C65.5033 12.1198 63.4851 12.5978 61 13C14.3272 20.5603 -7.89473 77.7739 21 116C29.9983 127.904 50.9766 141.367 52 136C52.1281 135.329 50.0532 134.346 47 133C34.4743 127.475 23.1843 116.442 17 104C-5.46122 58.8129 32.8181 7.69959 83 16C90.5384 17.2474 92.3878 14.547 85 13C81.6374 12.2959 67.8142 11.5624 66 12V12ZM66 25C57.1753 26.2987 46 30.7919 46 33C46 34.7133 47.3423 35.1981 52 33C77.5126 20.9622 108.758 34.2244 118 61C133.361 105.506 82.506 142.312 44 115C22.603 99.8234 17.6396 70.7054 33 49C37.076 43.2403 35.1622 40.3376 31 46C5.3551 80.8898 31.7347 130.46 75 128C118.675 125.517 140.055 72.606 110 41C98.982 29.4134 80.6139 22.8497 66 25V25ZM119 33C118.104 33.8947 118.132 35.2792 121 39C142.26 66.5837 136.191 108.602 107 128C93.8465 136.74 81.5966 138.45 60 137C57.9661 136.863 58 137.021 58 138C58 142.446 84.1832 141.045 97 136C134.583 121.208 148.654 74.3151 126 41C121.701 34.6789 120.009 31.9921 119 33V33ZM55 56C53.9317 57.1784 54.1636 58.5911 54 76C53.7313 104.62 50.397 103.206 85 85C101.864 76.1269 102.187 76.6707 78 64C59.0898 54.0936 57.1201 53.6622 55 56V56ZM76 67C94.3734 76.5839 94.285 75.9349 93 77C91.559 78.1949 58.8722 95 58 95C57.2996 95 57 91.8054 57 76C57 62.7072 57.5388 58 58 58C58.3614 58 66.4206 62.0035 76 67V67Z" fill="white"/>
</svg>
