<svg width="32" height="32" viewBox="0 0 32 32" fill="none" xmlns="http://www.w3.org/2000/svg">
<path d="M30 8C28.9875 8.5006 28.1876 7.83753 27 8C28.1876 7.32272 28.6628 6.35355 29 5C27.9825 5.61737 27.2626 6.74513 26 7V7C24.9561 5.97037 23.5754 5.02132 22 5V5C19.1245 5 16 7.95375 16 11C16 11.5006 15.8248 11.6619 16 12C11.3648 11.8193 7.72562 9.3529 5 6V6C4.56969 6.73719 4 8.05465 4 9C4 9.11068 3.99291 8.89034 4 9V9C4.03442 10.907 5.51772 12.0252 7 13V13C6.14951 13 4.85049 13.3391 4 13C4 15.7081 6.47587 17.4994 9 18C8.50084 18.1757 7.49916 18 7 18C6.66284 18 6.33716 18.1757 6 18C6.67533 20.2065 8.46271 22 11 22C9.17752 23.4774 7.55248 24 5 24C4.92811 24 4.07189 24.001 4 24V24H3C5.39453 25.5323 7.88154 26.935 11 27V27C21.1249 27 27 18.2846 27 11V11C28.1613 10.1978 29.2811 9.17484 30 8V8V8Z" fill="white"/>
</svg>
